<?xml version="1.0" standalone="no"?>
<!DOCTYPE svg PUBLIC "-//W3C//DTD SVG 20010904//EN"
 "http://www.w3.org/TR/2001/REC-SVG-20010904/DTD/svg10.dtd">
<svg version="1.0" xmlns="http://www.w3.org/2000/svg"
 width="300.000000pt" height="300.000000pt" viewBox="0 0 300.000000 300.000000"
 preserveAspectRatio="xMidYMid meet">
<metadata>
Created by potrace 1.10, written by Peter Selinger 2001-2011
</metadata>
<g transform="translate(0.000000,300.000000) scale(0.100000,-0.100000)"
fill="#000000" stroke="none">
<path d="M1452 1830 c-28 -31 -40 -53 -36 -64 4 -10 1 -16 -9 -16 -9 0 -32
-27 -51 -59 -21 -34 -45 -61 -59 -65 -12 -4 -35 -24 -52 -46 -16 -21 -33 -39
-37 -40 -3 0 -19 14 -35 30 -15 17 -31 30 -36 30 -4 0 -21 -16 -38 -35 -17
-19 -40 -35 -50 -35 -11 0 -42 -21 -70 -47 -50 -47 -61 -71 -14 -35 14 11 34
18 44 15 10 -3 22 0 25 6 4 5 13 8 20 5 8 -3 28 2 45 11 18 9 36 13 41 10 5
-3 6 10 3 31 l-6 37 26 -19 c26 -19 36 -44 17 -44 -5 0 -10 -4 -10 -10 0 -15
53 -12 93 5 52 22 80 19 147 -15 72 -36 75 -37 55 -6 -17 26 -110 91 -153 107
l-26 10 24 12 c14 7 42 38 63 70 20 31 41 57 46 57 5 0 21 18 36 40 15 22 31
40 35 40 9 0 30 -46 30 -67 0 -11 -6 -14 -22 -10 -16 5 -32 -5 -67 -41 l-46
-47 39 -3 c26 -2 40 -9 43 -21 2 -9 14 -23 26 -31 40 -25 130 -70 142 -70 6 0
31 -17 55 -37 38 -33 43 -35 38 -15 -4 12 -2 22 3 22 5 0 12 -18 15 -40 8 -46
24 -64 24 -26 0 37 36 34 77 -6 18 -17 36 -29 39 -25 8 8 -119 152 -153 174
-14 9 -39 46 -58 83 -24 47 -45 74 -74 93 -28 19 -50 45 -68 82 -15 30 -30 55
-33 54 -3 -1 -24 -22 -48 -49z m123 -106 c27 -18 33 -40 13 -47 -7 -2 3 -11
22 -19 19 -8 48 -33 63 -55 15 -22 39 -46 52 -53 28 -15 34 -33 8 -23 -30 11
-76 44 -125 92 -50 47 -67 38 -27 -13 12 -15 19 -29 16 -32 -8 -8 -89 41 -117
71 -23 24 -23 25 -5 45 10 11 24 20 30 20 7 0 18 7 25 15 15 19 15 19 45 -1z
m-268 -178 c-4 -12 -57 -22 -57 -10 0 4 8 12 17 19 19 14 46 8 40 -9z"/>
<path d="M1814 1725 c-9 -14 -22 -25 -29 -25 -7 0 -27 -19 -44 -42 -31 -42
-34 -61 -6 -38 8 7 15 9 15 5 0 -5 17 10 38 33 22 23 44 42 49 42 19 0 23 -30
8 -54 -16 -23 -15 -24 30 -30 46 -7 46 -7 39 -41 -8 -46 3 -61 26 -33 24 30
38 16 42 -42 3 -43 8 -42 22 4 4 11 14 9 52 -10 26 -13 59 -24 73 -24 21 1 17
5 -26 26 -55 26 -126 91 -148 135 -8 15 -25 29 -38 33 -13 3 -36 24 -51 46
-14 22 -28 40 -31 40 -2 0 -12 -11 -21 -25z"/>
<path d="M1098 1450 c-31 -5 -83 -17 -115 -26 -63 -18 -158 -62 -150 -70 2 -3
40 7 83 21 122 40 356 44 534 10 103 -19 176 -36 244 -54 109 -29 254 -29 332
0 56 21 144 93 144 118 0 7 -20 -5 -45 -27 -65 -57 -134 -76 -249 -69 -50 3
-120 15 -156 26 -36 12 -74 23 -85 26 -11 2 -39 9 -63 15 -40 10 -54 12 -142
26 -67 10 -275 13 -332 4z"/>
<path d="M648 1009 l-3 -159 47 0 c33 0 46 4 44 13 -10 31 -15 137 -6 137 5 0
14 -16 21 -35 15 -39 33 -44 79 -20 62 32 79 121 35 174 -32 37 -43 41 -138
45 l-76 3 -3 -158z m160 74 c18 -25 15 -57 -8 -78 -16 -15 -25 -16 -44 -7 -19
8 -25 20 -28 57 -2 26 -1 49 2 51 10 10 65 -7 78 -23z"/>
<path d="M1015 1161 c-36 -15 -83 -72 -95 -117 -12 -43 -9 -139 6 -177 4 -12
18 -17 50 -17 24 0 44 1 44 3 0 2 -9 22 -20 45 -11 22 -20 44 -20 47 0 6 85 7
92 0 3 -3 2 -25 -2 -50 l-7 -45 43 0 42 0 1 144 c2 139 1 145 -21 160 -24 17
-80 20 -113 7z m59 -104 l1 -47 -47 0 c-42 0 -46 2 -41 21 7 25 62 81 75 77 6
-2 11 -25 12 -51z m-98 -68 c12 -13 11 -17 -7 -32 -22 -19 -32 -8 -25 28 3 11
5 31 7 45 l2 25 4 -25 c3 -14 11 -32 19 -41z m141 5 c-6 -54 -7 -56 -28 -41
-23 17 -23 26 0 46 12 10 21 23 21 30 0 6 3 11 6 11 3 0 3 -21 1 -46z"/>
<path d="M1175 1008 l0 -158 40 0 40 0 -5 80 c-3 44 -3 103 -2 130 4 47 6 50
31 50 37 0 69 -35 55 -58 -6 -9 -25 -18 -43 -20 -37 -4 -38 -13 -11 -82 11
-29 21 -63 22 -76 2 -22 6 -24 57 -24 51 0 53 1 39 18 -9 9 -24 38 -35 63
l-20 45 28 16 c32 19 48 76 31 113 -19 41 -53 55 -143 58 l-84 3 0 -158z"/>
<path d="M1534 1160 c-81 -33 -125 -160 -93 -272 10 -37 12 -38 54 -38 25 0
45 2 45 5 0 2 -9 19 -20 37 -30 50 -26 58 26 58 l47 0 -5 -50 -5 -50 41 0 41
0 -3 147 c-3 122 -6 150 -20 161 -18 14 -76 15 -108 2z m56 -100 l0 -50 -45 0
c-25 0 -45 2 -45 5 0 28 57 90 88 95 1 0 2 -22 2 -50z m-95 -66 c16 -24 16
-26 -2 -39 -25 -18 -33 -10 -31 30 1 42 10 44 33 9z m135 -30 l0 -37 -21 28
c-18 22 -20 29 -8 36 24 15 29 10 29 -27z"/>
<path d="M1695 1010 l0 -160 40 0 40 0 0 160 0 160 -40 0 -40 0 0 -160z"/>
<path d="M1870 1159 c-104 -42 -90 -151 24 -180 55 -14 74 -32 56 -54 -7 -8
-21 -15 -32 -15 -24 0 -78 28 -78 40 0 19 -15 10 -32 -19 -16 -28 -15 -30 9
-53 21 -19 35 -23 94 -23 61 0 72 3 95 26 33 33 37 90 8 119 -10 11 -44 28
-74 38 -41 14 -55 24 -55 38 0 15 8 20 37 22 20 2 47 -2 59 -9 19 -10 25 -8
40 12 25 33 24 35 -21 53 -45 18 -93 20 -130 5z m-18 -75 c-3 -18 0 -30 12
-36 23 -13 21 -31 -3 -19 -25 14 -33 38 -21 62 14 26 18 24 12 -7z m128 -98
c0 16 20 -20 20 -37 0 -8 -7 -24 -15 -35 -14 -18 -14 -17 -4 9 11 24 9 30 -12
54 -13 15 -16 21 -6 14 9 -7 17 -10 17 -5z"/>
<path d="M2133 1156 c-92 -42 -98 -232 -10 -286 39 -24 116 -26 157 -5 41 21
70 82 70 145 0 56 -15 93 -53 128 -32 30 -117 39 -164 18z m101 -56 c57 -21
57 -156 0 -182 -33 -15 -74 0 -92 32 -19 37 -8 120 19 143 24 19 37 21 73 7z"/>
<path d="M830 709 c0 -4 4 -10 9 -13 9 -6 76 -208 87 -264 6 -28 10 -32 39
-32 28 0 37 6 55 37 35 59 59 129 66 188 8 67 -10 95 -63 95 -34 0 -41 -8 -22
-27 17 -17 17 -93 1 -140 -7 -24 -17 -43 -20 -43 -10 0 -46 140 -46 177 0 31
0 31 -53 31 -29 0 -53 -4 -53 -9z m164 -210 c17 26 24 8 10 -23 -23 -46 -48
-38 -61 20 l-11 45 28 -26 c18 -17 30 -23 34 -16z"/>
<path d="M1200 709 c-88 -37 -121 -160 -65 -245 39 -60 139 -83 206 -48 26 13
30 19 24 42 -9 36 -10 37 -37 18 -32 -23 -82 -20 -112 7 -19 16 -23 26 -17 36
10 16 75 20 104 7 15 -7 17 -3 17 32 0 37 -3 41 -30 47 -39 9 -75 -14 -93 -58
-13 -31 -14 -31 -21 -9 -10 31 22 94 57 110 32 15 79 8 103 -15 18 -18 20 -17
28 22 5 24 2 33 -15 43 -28 18 -118 25 -149 11z"/>
<path d="M1385 559 l0 -159 40 0 40 0 -4 130 -3 130 29 0 c40 0 66 -21 61 -51
-2 -19 -10 -25 -38 -29 -19 -3 -35 -9 -35 -15 0 -5 11 -45 25 -87 l24 -78 47
0 46 0 -30 59 -31 59 32 30 c43 41 45 91 3 133 -16 16 -40 29 -53 29 -13 0
-52 2 -88 4 l-65 3 0 -158z"/>
<path d="M1645 559 l0 -159 62 0 c72 0 108 12 139 45 44 48 46 175 3 221 -36
39 -53 45 -132 48 l-72 4 0 -159z m140 76 c20 -19 25 -34 25 -75 0 -41 -5 -56
-25 -75 -13 -14 -33 -25 -45 -25 -19 0 -20 6 -20 100 0 94 1 100 20 100 12 0
32 -11 45 -25z"/>
<path d="M1990 701 c-101 -53 -107 -214 -10 -279 30 -20 45 -23 97 -20 79 5
106 25 90 68 l-11 28 -24 -19 c-32 -24 -83 -24 -113 0 -48 39 15 73 88 48 21
-8 22 -6 16 30 -7 41 -17 53 -48 53 -29 0 -63 -27 -80 -63 l-15 -32 4 49 c5
58 27 84 80 93 29 4 44 1 66 -15 l28 -21 6 22 c10 38 7 46 -24 62 -40 20 -108
19 -150 -4z"/>
</g>
</svg>
