<?xml version="1.0" standalone="no"?>
<!DOCTYPE svg PUBLIC "-//W3C//DTD SVG 20010904//EN"
 "http://www.w3.org/TR/2001/REC-SVG-20010904/DTD/svg10.dtd">
<svg version="1.0" xmlns="http://www.w3.org/2000/svg"
 width="500.000000pt" height="500.000000pt" viewBox="0 0 500.000000 500.000000"
 preserveAspectRatio="xMidYMid meet">

<g transform="translate(0.000000,500.000000) scale(0.100000,-0.100000)"
fill="#000000" stroke="none">
<path d="M3691 1945 c-2 -20 30 -54 44 -49 21 9 18 23 -3 17 -12 -3 -22 3 -29
19 -7 13 -12 18 -12 13z"/>
<path d="M1285 1931 c-3 -5 -2 -12 3 -15 5 -3 9 1 9 9 0 17 -3 19 -12 6z"/>
<path d="M1833 1925 c0 -7 6 -11 14 -8 7 3 13 6 13 8 0 2 -6 5 -13 8 -8 3 -14
-1 -14 -8z"/>
<path d="M1985 1930 c-3 -5 -3 -14 0 -20 3 -5 2 -10 -4 -10 -5 0 -12 5 -14 10
-3 6 -4 5 -3 -2 4 -22 29 -14 31 10 2 24 -1 27 -10 12z"/>
<path d="M2170 1920 c-6 -11 -9 -20 -8 -20 2 0 11 9 21 20 9 11 13 20 7 20 -5
0 -14 -9 -20 -20z"/>
<path d="M2600 1929 c0 -5 5 -7 10 -4 6 3 10 8 10 11 0 2 -4 4 -10 4 -5 0 -10
-5 -10 -11z"/>
<path d="M3139 1923 c-13 -16 -12 -17 2 -5 14 10 18 10 24 -5 5 -10 9 -21 9
-25 1 -3 5 -10 10 -15 5 -4 7 -3 3 2 -3 6 -1 17 4 25 8 13 10 13 20 0 9 -13
10 -12 5 3 -3 10 -6 21 -6 24 0 3 -7 0 -15 -7 -13 -11 -18 -10 -28 4 -12 17
-14 17 -28 -1z"/>
<path d="M3607 1926 c-4 -10 -1 -13 8 -9 8 3 12 9 9 14 -7 12 -11 11 -17 -5z"/>
<path d="M1096 1915 c-9 -26 -7 -32 5 -12 6 10 9 21 6 23 -2 3 -7 -2 -11 -11z"/>
<path d="M1333 1915 c0 -8 4 -15 9 -15 4 0 8 4 8 9 0 6 -4 12 -8 15 -5 3 -9
-1 -9 -9z"/>
<path d="M1780 1926 c0 -2 8 -10 18 -17 15 -13 16 -12 3 4 -13 16 -21 21 -21
13z"/>
<path d="M2216 1921 c-4 -5 -2 -12 4 -16 6 -4 8 -10 5 -15 -8 -12 23 -6 37 8
7 7 9 13 5 13 -4 1 -10 2 -14 3 -5 1 -13 5 -20 9 -6 4 -14 3 -17 -2z m39 -13
c5 4 5 1 1 -6 -6 -10 -11 -10 -22 -1 -8 6 -14 14 -14 16 0 3 6 0 13 -6 8 -6
18 -7 22 -3z"/>
<path d="M2580 1917 c0 -10 8 -17 18 -17 9 0 13 4 7 8 -5 4 -13 11 -17 16 -5
5 -8 2 -8 -7z"/>
<path d="M2629 1929 c0 -2 -2 -11 -4 -20 -1 -9 3 -16 10 -16 7 0 12 6 11 13
-2 13 -15 31 -17 23z"/>
<path d="M2660 1921 c0 -10 19 -25 25 -20 1 2 -3 10 -11 17 -8 7 -14 8 -14 3z"/>
<path d="M1760 1913 c5 -2 10 -9 10 -14 0 -6 -9 -5 -21 1 -11 7 -23 9 -27 6
-3 -3 0 -6 7 -6 6 0 23 -11 36 -24 18 -18 25 -20 29 -10 3 8 0 13 -6 11 -7 -1
-12 7 -13 17 0 11 -6 20 -13 22 -7 1 -8 0 -2 -3z"/>
<path d="M2723 1913 c4 -3 1 -13 -6 -22 -11 -14 -10 -14 5 -2 16 12 16 31 1
31 -4 0 -3 -3 0 -7z"/>
<path d="M3230 1910 c0 -5 5 -10 11 -10 5 0 7 5 4 10 -3 6 -8 10 -11 10 -2 0
-4 -4 -4 -10z"/>
<path d="M3279 1912 c9 -7 10 -11 2 -15 -7 -4 -8 -5 -1 -3 16 2 14 20 -2 24
-10 3 -10 2 1 -6z"/>
<path d="M3573 1905 c0 -8 4 -12 9 -9 5 3 6 10 3 15 -9 13 -12 11 -12 -6z"/>
<path d="M3793 1901 c0 -11 5 -18 9 -15 4 3 5 11 1 19 -7 21 -12 19 -10 -4z"/>
<path d="M1363 1893 c0 -9 4 -10 14 -2 7 6 13 12 13 14 0 1 -6 2 -13 2 -8 0
-14 -6 -14 -14z"/>
<path d="M1842 1901 c-11 -7 -11 -9 1 -14 9 -3 21 1 27 9 10 11 10 14 -1 14
-8 0 -20 -4 -27 -9z"/>
<path d="M2068 1903 c6 -2 18 -2 25 0 6 3 1 5 -13 5 -14 0 -19 -2 -12 -5z"/>
<path d="M2118 1903 c6 -2 18 -2 25 0 6 3 1 5 -13 5 -14 0 -19 -2 -12 -5z"/>
<path d="M2186 1901 c-3 -5 1 -11 9 -14 9 -4 12 -1 8 9 -6 16 -10 17 -17 5z"/>
<path d="M3099 1893 c-13 -16 -12 -17 4 -4 16 13 21 21 13 21 -2 0 -10 -8 -17
-17z"/>
<path d="M3313 1898 c-15 -20 -25 -38 -20 -38 3 0 12 11 21 25 17 26 16 35 -1
13z"/>
<path d="M3615 1900 c-3 -6 1 -7 9 -4 18 7 21 14 7 14 -6 0 -13 -4 -16 -10z"/>
<path d="M1303 1885 c0 -8 4 -12 9 -9 5 3 6 10 3 15 -9 13 -12 11 -12 -6z"/>
<path d="M1636 1892 c-2 -4 4 -8 14 -8 10 0 16 4 14 8 -3 4 -9 8 -14 8 -5 0
-11 -4 -14 -8z"/>
<path d="M2525 1890 c3 -5 8 -10 11 -10 2 0 4 5 4 10 0 6 -5 10 -11 10 -5 0
-7 -4 -4 -10z"/>
<path d="M3131 1886 c-9 -10 -7 -17 6 -27 16 -13 17 -12 5 3 -11 14 -10 18 5
27 10 6 13 11 7 11 -6 0 -17 -6 -23 -14z"/>
<path d="M1330 1875 c-11 -13 -11 -18 0 -28 10 -9 11 -9 6 1 -4 7 -2 19 4 27
7 8 10 15 7 15 -2 0 -10 -7 -17 -15z"/>
<path d="M1709 1878 c-1 -7 0 -20 1 -27 1 -12 -1 -13 -13 -2 -13 10 -15 9 -13
-5 2 -10 10 -18 19 -20 10 -1 15 2 11 7 -3 5 0 9 7 9 10 0 10 3 2 11 -6 6 -9
18 -6 25 3 8 2 14 -1 14 -3 0 -7 -6 -7 -12z"/>
<path d="M1203 1867 c0 -8 6 -14 14 -14 9 0 10 4 2 14 -6 7 -12 13 -14 13 -1
0 -2 -6 -2 -13z"/>
<path d="M2115 1870 c-3 -5 -1 -10 4 -10 6 0 11 5 11 10 0 6 -2 10 -4 10 -3 0
-8 -4 -11 -10z"/>
<path d="M2140 1860 c-9 -17 -8 -20 9 -20 11 0 25 10 31 23 10 20 10 20 -3 5
-17 -22 -31 -23 -23 -3 8 22 -1 18 -14 -5z"/>
<path d="M1736 1857 c3 -10 9 -15 12 -12 3 3 0 11 -7 18 -10 9 -11 8 -5 -6z"/>
<path d="M2469 1860 c-1 -5 -3 -14 -4 -20 -1 -5 -3 -15 -4 -21 0 -5 -5 -8 -9
-5 -5 3 -9 -1 -9 -8 0 -28 32 6 33 35 2 27 -4 42 -7 19z"/>
<path d="M2603 1855 c0 -8 4 -12 9 -9 5 3 6 10 3 15 -9 13 -12 11 -12 -6z"/>
<path d="M3215 1861 c-6 -11 13 -26 22 -17 4 3 0 6 -8 6 -11 0 -11 2 1 10 9 6
10 10 3 10 -6 0 -14 -4 -18 -9z"/>
<path d="M3259 1853 c-13 -16 -12 -17 4 -4 16 13 21 21 13 21 -2 0 -10 -8 -17
-17z"/>
<path d="M1270 1846 c7 -7 13 -7 20 0 6 6 3 10 -10 10 -13 0 -16 -4 -10 -10z"/>
<path d="M1810 1850 c0 -5 5 -10 11 -10 5 0 7 5 4 10 -3 6 -8 10 -11 10 -2 0
-4 -4 -4 -10z"/>
<path d="M3300 1845 c-7 -9 -10 -18 -7 -21 3 -3 10 4 17 15 13 25 8 27 -10 6z"/>
<path d="M1440 1841 c0 -6 4 -13 10 -16 6 -3 7 1 4 9 -7 18 -14 21 -14 7z"/>
<path d="M3859 1843 c0 -4 -2 -15 -4 -24 -2 -13 2 -15 19 -11 19 6 19 7 2 10
-14 3 -15 6 -6 12 8 5 9 9 1 14 -6 4 -11 4 -12 -1z"/>
<path d="M1797 1829 c7 -7 15 -10 18 -7 3 3 -2 9 -12 12 -14 6 -15 5 -6 -5z"/>
<path d="M2565 1830 c-3 -6 1 -7 9 -4 18 7 21 14 7 14 -6 0 -13 -4 -16 -10z"/>
<path d="M3129 1838 c-5 -18 -6 -38 -1 -34 7 8 12 36 6 36 -2 0 -4 -1 -5 -2z"/>
<path d="M2225 1821 c-3 -5 -2 -12 3 -15 5 -3 9 1 9 9 0 17 -3 19 -12 6z"/>
<path d="M3020 1815 c-7 -9 -11 -17 -9 -20 3 -2 10 5 17 15 14 24 10 26 -8 5z"/>
<path d="M3485 1821 c-3 -5 0 -13 6 -17 7 -4 9 -3 5 4 -3 5 0 13 6 15 9 4 10
6 1 6 -6 1 -14 -3 -18 -8z"/>
<path d="M1580 1780 c-6 -11 -8 -21 -5 -21 3 -1 11 -2 18 -3 6 -1 11 -8 9 -15
-1 -7 2 -9 8 -6 8 5 6 13 -5 25 -9 10 -14 24 -10 29 3 6 4 11 1 11 -3 0 -10
-9 -16 -20z"/>
<path d="M1633 1783 c0 -9 4 -10 14 -2 7 6 13 12 13 14 0 1 -6 2 -13 2 -8 0
-14 -6 -14 -14z"/>
<path d="M2500 1786 c13 -18 13 -19 -2 -14 -17 7 -20 -14 -3 -29 4 -5 5 -2 0
6 -6 11 -4 13 7 8 20 -7 18 18 -2 36 -11 9 -11 8 0 -7z"/>
<path d="M3795 1768 c7 -39 7 -39 25 -28 13 9 13 10 0 10 -9 0 -11 3 -4 8 6 4
4 13 -8 25 -18 17 -18 16 -13 -15z"/>
<path d="M2419 1763 c-13 -16 -12 -17 4 -4 16 13 21 21 13 21 -2 0 -10 -8 -17
-17z"/>
<path d="M2439 1753 c-13 -16 -12 -17 4 -4 9 7 17 15 17 17 0 8 -8 3 -21 -13z"/>
<path d="M3545 1759 c-4 -6 -5 -12 -2 -15 2 -3 7 2 10 11 7 17 1 20 -8 4z"/>
<path d="M3846 1755 c-9 -26 -7 -32 5 -12 6 10 9 21 6 23 -2 3 -7 -2 -11 -11z"/>
<path d="M3135 1750 c-8 -13 9 -20 24 -11 10 6 9 10 -3 14 -8 3 -18 2 -21 -3z"/>
<path d="M2325 1741 c-3 -5 -2 -12 3 -15 5 -3 9 1 9 9 0 17 -3 19 -12 6z"/>
<path d="M2460 1741 c0 -6 4 -13 10 -16 6 -3 7 1 4 9 -7 18 -14 21 -14 7z"/>
<path d="M3520 1741 c0 -6 4 -13 10 -16 6 -3 7 1 4 9 -7 18 -14 21 -14 7z"/>
<path d="M1623 1715 c0 -8 4 -15 9 -15 4 0 8 4 8 9 0 6 -4 12 -8 15 -5 3 -9
-1 -9 -9z"/>
<path d="M3093 1708 c-17 -22 -25 -44 -9 -24 8 10 19 15 25 11 7 -3 8 0 5 9
-7 19 -9 19 -21 4z"/>
<path d="M3816 1707 c3 -10 9 -15 12 -12 3 3 0 11 -7 18 -10 9 -11 8 -5 -6z"/>
<path d="M2143 1685 c0 -8 4 -12 9 -9 5 3 6 10 3 15 -9 13 -12 11 -12 -6z"/>
<path d="M3290 1680 c-6 -11 -8 -20 -6 -20 3 0 10 9 16 20 6 11 8 20 6 20 -3
0 -10 -9 -16 -20z"/>
<path d="M3305 1664 c-9 -15 -12 -23 -6 -20 11 7 35 46 28 46 -3 0 -12 -12
-22 -26z"/>
<path d="M1776 1653 c-6 -14 -5 -15 5 -6 7 7 10 15 7 18 -3 3 -9 -2 -12 -12z"/>
<path d="M2116 1662 c-2 -4 -1 -14 3 -21 6 -10 10 -9 14 3 6 16 -8 32 -17 18z"/>
<path d="M2245 1661 c-3 -5 -2 -12 3 -15 5 -3 9 1 9 9 0 17 -3 19 -12 6z"/>
<path d="M3816 1653 c-6 -14 -5 -15 5 -6 7 7 10 15 7 18 -3 3 -9 -2 -12 -12z"/>
<path d="M1255 1631 c-3 -5 -2 -12 3 -15 5 -3 9 1 9 9 0 17 -3 19 -12 6z"/>
<path d="M1376 1628 c3 -5 9 -7 12 -4 3 3 11 1 18 -5 8 -7 14 -7 19 1 4 6 3
10 -2 9 -4 -1 -10 0 -13 1 -20 7 -39 7 -34 -2z"/>
<path d="M1685 1630 c-4 -6 1 -7 12 -3 16 6 17 5 3 -12 -14 -17 -14 -17 7 -4
16 9 19 16 10 21 -16 10 -25 10 -32 -2z"/>
<path d="M1748 1633 c6 -2 9 -10 6 -15 -4 -7 -2 -8 4 -4 11 7 17 -6 13 -27 -1
-5 3 -6 9 -2 6 3 7 11 4 17 -4 6 0 15 7 20 11 8 10 9 -3 4 -10 -3 -20 -1 -23
4 -4 6 -12 10 -18 9 -9 0 -8 -2 1 -6z"/>
<path d="M2616 1627 c3 -10 9 -15 12 -12 3 3 0 11 -7 18 -10 9 -11 8 -5 -6z"/>
<path d="M3845 1629 c-4 -6 -5 -12 -2 -15 2 -3 7 2 10 11 7 17 1 20 -8 4z"/>
<path d="M2490 1620 c0 -5 5 -10 12 -10 6 0 21 -8 32 -17 20 -17 20 -17 7 0
-19 24 -51 41 -51 27z"/>
<path d="M2545 1621 c-3 -5 -2 -12 3 -15 5 -3 9 1 9 9 0 17 -3 19 -12 6z"/>
<path d="M3796 1622 c-2 -4 4 -8 14 -8 10 0 16 4 14 8 -3 4 -9 8 -14 8 -5 0
-11 -4 -14 -8z"/>
<path d="M1615 1589 c-9 -17 -14 -33 -12 -36 3 -2 8 5 12 16 3 12 13 28 21 36
9 8 11 15 5 15 -6 0 -18 -14 -26 -31z"/>
<path d="M2596 1607 c3 -10 9 -15 12 -12 3 3 0 11 -7 18 -10 9 -11 8 -5 -6z"/>
<path d="M1715 1599 c-11 -17 1 -21 15 -4 8 9 8 15 2 15 -6 0 -14 -5 -17 -11z"/>
<path d="M2480 1596 c0 -2 7 -7 16 -10 8 -3 12 -2 9 4 -6 10 -25 14 -25 6z"/>
<path d="M3809 1583 c-13 -16 -12 -17 4 -4 9 7 17 15 17 17 0 8 -8 3 -21 -13z"/>
<path d="M3829 1573 c-13 -16 -12 -17 4 -4 16 13 21 21 13 21 -2 0 -10 -8 -17
-17z"/>
<path d="M3870 1580 c-8 -5 -15 -18 -16 -28 -1 -15 4 -18 20 -14 18 5 18 7 4
10 -10 2 -18 8 -18 14 0 5 7 7 16 4 8 -3 13 -2 9 3 -3 5 1 12 7 14 7 3 9 6 3
6 -5 0 -17 -4 -25 -9z"/>
<path d="M3267 1555 c-4 -8 -3 -16 1 -19 4 -3 9 4 9 15 2 23 -3 25 -10 4z"/>
<path d="M1622 1545 c-8 -10 -9 -15 -2 -15 6 0 8 -5 5 -10 -4 -6 -12 -7 -18
-4 -7 4 -8 3 -4 -1 10 -12 39 -16 32 -5 -3 5 1 11 7 13 10 4 10 6 1 6 -7 1
-10 8 -7 16 8 19 3 19 -14 0z"/>
<path d="M3021 1547 c-8 -10 -7 -14 2 -14 8 0 14 6 14 14 0 7 -1 13 -2 13 -2
0 -8 -6 -14 -13z"/>
<path d="M3480 1556 c0 -2 8 -10 18 -17 15 -13 16 -12 3 4 -13 16 -21 21 -21
13z"/>
<path d="M2256 1537 c3 -8 1 -18 -5 -22 -15 -8 -14 -28 1 -23 14 5 21 45 8 53
-5 3 -7 0 -4 -8z"/>
<path d="M3092 1524 c10 -10 20 -16 22 -13 3 3 -5 11 -17 18 -21 13 -21 12 -5
-5z"/>
<path d="M3066 1517 c3 -10 9 -15 12 -12 3 3 0 11 -7 18 -10 9 -11 8 -5 -6z"/>
<path d="M3023 1503 c0 -9 4 -10 14 -2 7 6 13 12 13 14 0 1 -6 2 -13 2 -8 0
-14 -6 -14 -14z"/>
<path d="M3154 1509 c-3 -5 -9 -7 -13 -5 -4 3 -13 1 -20 -3 -9 -6 -4 -8 13 -8
14 0 26 4 26 9 0 5 5 6 10 3 6 -4 8 -10 6 -14 -3 -4 4 -7 14 -8 11 -1 22 2 25
8 4 5 -2 6 -11 2 -11 -4 -15 -2 -11 4 4 6 -2 13 -13 16 -11 3 -23 1 -26 -4z"/>
<path d="M3495 1509 c-11 -16 -1 -19 13 -3 7 8 8 14 3 14 -5 0 -13 -5 -16 -11z"/>
<path d="M3695 1510 c-4 -6 -10 -8 -15 -5 -5 3 -3 -7 5 -22 11 -21 12 -30 2
-42 -10 -14 -10 -14 5 -3 13 10 15 19 8 37 -5 14 -5 26 3 34 6 6 8 11 5 11 -4
0 -10 -5 -13 -10z"/>
<path d="M3719 1503 c-13 -16 -12 -17 4 -4 16 13 21 21 13 21 -2 0 -10 -8 -17
-17z"/>
<path d="M3046 1492 c-2 -4 2 -18 11 -32 9 -16 12 -18 7 -5 -3 11 -7 26 -7 33
0 14 -4 15 -11 4z"/>
<path d="M3626 1488 c3 -5 10 -6 15 -3 13 9 11 12 -6 12 -8 0 -12 -4 -9 -9z"/>
<path d="M3275 1475 c11 -9 19 -19 18 -23 -1 -4 0 -9 2 -10 2 -2 2 4 1 13 -1
10 -11 22 -22 27 -18 9 -17 8 1 -7z"/>
<path d="M3090 1455 c13 -14 26 -25 28 -25 3 0 -5 11 -18 25 -13 14 -26 25
-28 25 -3 0 5 -11 18 -25z"/>
<path d="M3316 1468 c3 -5 10 -6 15 -3 13 9 11 12 -6 12 -8 0 -12 -4 -9 -9z"/>
<path d="M3742 1464 c9 -9 21 -15 27 -13 6 2 -2 10 -17 17 -25 11 -25 11 -10
-4z"/>
<path d="M1820 1466 c0 -2 7 -7 16 -10 8 -3 12 -2 9 4 -6 10 -25 14 -25 6z"/>
<path d="M1970 1465 c0 -5 5 -17 10 -25 5 -8 10 -10 10 -5 0 6 -5 17 -10 25
-5 8 -10 11 -10 5z"/>
<path d="M2504 1454 c-18 -14 -18 -15 4 -4 12 6 22 13 22 15 0 8 -5 6 -26 -11z"/>
<path d="M2856 1458 c3 -5 10 -6 15 -3 13 9 11 12 -6 12 -8 0 -12 -4 -9 -9z"/>
<path d="M3160 1464 c0 -6 7 -19 16 -30 14 -18 14 -18 3 6 -14 31 -19 36 -19
24z"/>
<path d="M1107 1453 c-10 -9 -9 -33 1 -33 4 0 8 9 8 20 0 23 0 22 -9 13z"/>
<path d="M2759 1447 c6 -8 7 -18 3 -22 -4 -5 -1 -5 6 -1 10 6 10 11 1 22 -6 8
-14 14 -16 14 -3 0 0 -6 6 -13z"/>
<path d="M2898 1453 c7 -3 16 -2 19 1 4 3 -2 6 -13 5 -11 0 -14 -3 -6 -6z"/>
<path d="M3249 1458 c-8 -26 -5 -36 8 -31 11 4 12 8 3 13 -9 6 -9 9 1 13 10 4
10 6 2 6 -7 1 -13 0 -14 -1z"/>
<path d="M2191 1441 c-10 -6 -9 -10 3 -14 8 -3 18 -2 21 3 8 13 -9 20 -24 11z"/>
<path d="M2519 1433 c-13 -16 -12 -17 4 -4 9 7 17 15 17 17 0 8 -8 3 -21 -13z"/>
<path d="M2720 1446 c0 -2 7 -7 16 -10 8 -3 12 -2 9 4 -6 10 -25 14 -25 6z"/>
<path d="M2270 1430 c0 -6 7 -10 15 -10 8 0 15 2 15 4 0 2 -7 6 -15 10 -8 3
-15 1 -15 -4z"/>
<path d="M3420 1190 c0 -5 -6 -7 -14 -4 -8 3 -17 0 -22 -7 -5 -8 -3 -10 6 -4
7 4 15 3 19 -3 4 -7 11 -4 19 8 7 12 8 20 2 20 -5 0 -10 -4 -10 -10z"/>
<path d="M1405 1181 c-3 -6 0 -8 9 -5 8 3 16 -1 19 -10 4 -14 5 -14 3 0 -1 20
-21 30 -31 15z"/>
<path d="M2077 1173 c3 -7 6 -13 8 -13 2 0 5 6 8 13 3 8 -1 14 -8 14 -7 0 -11
-6 -8 -14z"/>
<path d="M2130 1175 c5 -7 6 -16 2 -21 -4 -5 -3 -5 2 -1 15 12 15 34 0 34 -9
0 -11 -4 -4 -12z"/>
<path d="M3460 1169 c5 -9 6 -20 2 -24 -4 -5 -2 -5 5 -1 7 4 9 14 6 23 -5 13
-2 15 11 10 9 -4 15 -3 11 2 -3 6 -14 9 -24 8 -15 -1 -17 -5 -11 -18z"/>
<path d="M2105 1160 c-8 -13 3 -30 18 -30 8 0 7 3 -2 9 -7 5 -10 14 -7 20 4 6
5 11 2 11 -3 0 -8 -4 -11 -10z"/>
<path d="M3435 1151 c-3 -5 -2 -12 3 -15 5 -3 9 1 9 9 0 17 -3 19 -12 6z"/>
<path d="M2249 1141 c11 -7 11 -9 0 -13 -9 -3 -8 -6 5 -11 10 -4 15 -3 11 3
-3 6 0 10 7 10 9 0 9 3 -2 10 -8 5 -19 10 -25 10 -5 0 -4 -4 4 -9z"/>
<path d="M3263 1128 c-11 -18 -13 -39 -3 -33 5 3 11 -1 13 -7 4 -9 6 -10 6 -1
1 6 -4 15 -9 18 -8 5 -7 11 1 21 6 8 9 14 6 14 -3 0 -9 -6 -14 -12z"/>
<path d="M3390 1129 c0 -5 5 -7 10 -4 6 3 10 8 10 11 0 2 -4 4 -10 4 -5 0 -10
-5 -10 -11z"/>
<path d="M3510 1129 c0 -5 5 -7 10 -4 6 3 10 8 10 11 0 2 -4 4 -10 4 -5 0 -10
-5 -10 -11z"/>
<path d="M1799 1125 c-1 -3 -2 -8 -3 -12 -1 -5 -4 -13 -8 -19 -4 -6 -1 -11 5
-11 7 0 13 11 13 24 0 21 -4 31 -7 18z"/>
<path d="M1938 1122 c8 -5 13 -13 12 -18 -1 -5 4 -10 12 -12 11 -3 11 -2 0 6
-8 5 -13 13 -12 18 1 5 -4 10 -12 12 -11 3 -11 2 0 -6z"/>
<path d="M2136 1122 c-3 -5 1 -9 9 -9 8 0 12 4 9 9 -3 4 -7 8 -9 8 -2 0 -6 -4
-9 -8z"/>
<path d="M2750 1122 c0 -4 9 -15 20 -25 11 -9 20 -13 20 -9 0 4 -9 15 -20 25
-11 9 -20 13 -20 9z"/>
<path d="M3410 1115 c-7 -9 -11 -17 -9 -20 3 -2 10 5 17 15 14 24 10 26 -8 5z"/>
<path d="M3478 1123 c7 -3 16 -2 19 1 4 3 -2 6 -13 5 -11 0 -14 -3 -6 -6z"/>
<path d="M1533 1105 c-3 -9 -3 -18 -1 -21 3 -3 8 4 11 16 6 23 -1 27 -10 5z"/>
<path d="M3458 1108 c5 -5 16 -8 23 -6 8 3 3 7 -10 11 -17 4 -21 3 -13 -5z"/>
<path d="M3063 1095 c0 -8 4 -12 9 -9 5 3 6 10 3 15 -9 13 -12 11 -12 -6z"/>
<path d="M3370 1089 c0 -5 5 -7 10 -4 6 3 10 8 10 11 0 2 -4 4 -10 4 -5 0 -10
-5 -10 -11z"/>
<path d="M1460 1070 c-9 -6 -10 -10 -3 -10 6 0 15 5 18 10 8 12 4 12 -15 0z"/>
<path d="M1967 1069 c7 -7 15 -10 18 -7 3 3 -2 9 -12 12 -14 6 -15 5 -6 -5z"/>
<path d="M1511 1056 c-8 -9 -9 -16 -3 -16 6 0 13 6 15 13 4 7 6 6 6 -4 1 -9
-6 -20 -15 -23 -18 -7 -12 -19 11 -22 9 -1 11 4 8 14 -5 11 -2 14 9 10 9 -4
15 0 15 8 0 8 -3 12 -5 9 -3 -3 -10 2 -17 11 -10 14 -12 14 -24 0z"/>
<path d="M2610 1059 c12 -9 10 -10 -9 -5 -17 3 -21 2 -13 -6 13 -13 46 -2 37
12 -3 5 -12 10 -18 10 -7 0 -6 -4 3 -11z"/>
<path d="M2995 1060 c-3 -6 1 -7 9 -4 18 7 21 14 7 14 -6 0 -13 -4 -16 -10z"/>
<path d="M1935 1050 c-3 -6 1 -7 9 -4 18 7 21 14 7 14 -6 0 -13 -4 -16 -10z"/>
<path d="M3021 1047 c-8 -10 -7 -14 2 -14 8 0 14 6 14 14 0 7 -1 13 -2 13 -2
0 -8 -6 -14 -13z"/>
<path d="M3216 1045 c-11 -8 -15 -15 -9 -15 6 0 16 7 23 15 16 19 11 19 -14 0z"/>
<path d="M1460 1040 c8 -5 20 -10 25 -10 6 0 3 5 -5 10 -8 5 -19 10 -25 10 -5
0 -3 -5 5 -10z"/>
<path d="M1725 1030 c1 -11 5 -23 10 -27 4 -5 5 -3 2 4 -4 6 -2 13 4 15 7 2 6
8 -3 16 -12 9 -14 8 -13 -8z"/>
<path d="M1962 1041 c-10 -6 -9 -11 4 -22 14 -11 16 -11 10 0 -5 8 -3 17 5 22
8 5 10 9 4 9 -5 0 -16 -4 -23 -9z"/>
<path d="M1787 1034 c-3 -3 -3 -13 0 -21 5 -12 7 -12 14 -1 15 23 4 40 -14 22z"/>
<path d="M1913 1027 c0 -8 6 -14 14 -14 9 0 10 4 2 14 -6 7 -12 13 -14 13 -1
0 -2 -6 -2 -13z"/>
<path d="M2594 1008 l-19 -23 23 19 c21 18 27 26 19 26 -2 0 -12 -10 -23 -22z"/>
<path d="M3263 1020 c2 -8 10 -15 17 -15 7 0 15 7 17 15 4 13 3 13 -6 0 -10
-13 -12 -13 -22 0 -9 13 -10 13 -6 0z"/>
<path d="M1925 990 c-3 -5 -1 -10 4 -10 6 0 11 5 11 10 0 6 -2 10 -4 10 -3 0
-8 -4 -11 -10z"/>
<path d="M2663 988 c-13 -21 -12 -36 3 -42 11 -4 12 -2 4 14 -11 21 2 36 22
24 7 -4 8 -3 4 4 -9 16 -23 15 -33 0z"/>
<path d="M1496 982 c-2 -4 -1 -14 3 -21 6 -9 11 -10 15 -2 4 6 2 11 -4 11 -6
0 -8 5 -5 10 3 6 4 10 1 10 -3 0 -7 -4 -10 -8z"/>
<path d="M2585 971 c-6 -5 -19 -11 -30 -14 -19 -4 -19 -5 1 -6 12 0 27 6 34
14 14 16 10 20 -5 6z"/>
<path d="M3375 964 c-10 -8 -14 -14 -8 -14 7 0 15 5 19 11 5 8 9 8 14 -1 5 -8
10 -8 14 -2 10 16 -18 21 -39 6z"/>
<path d="M2605 959 c-4 -6 -5 -12 -2 -15 2 -3 7 2 10 11 7 17 1 20 -8 4z"/>
<path d="M2065 953 c3 -3 0 -11 -5 -18 -7 -8 -5 -12 4 -12 14 0 16 22 3 32 -4
3 -5 2 -2 -2z"/>
<path d="M2510 956 c0 -2 8 -10 18 -17 15 -13 16 -12 3 4 -13 16 -21 21 -21
13z"/>
<path d="M2624 949 c-10 -17 9 -30 26 -18 12 9 12 10 -4 5 -13 -5 -17 -2 -12
9 6 17 0 20 -10 4z"/>
<path d="M1766 938 c3 -5 10 -6 15 -3 13 9 11 12 -6 12 -8 0 -12 -4 -9 -9z"/>
<path d="M3406 932 c-2 -4 4 -8 14 -8 10 0 16 4 14 8 -3 4 -9 8 -14 8 -5 0
-11 -4 -14 -8z"/>
<path d="M2603 911 c0 -11 5 -18 9 -15 4 3 5 11 1 19 -7 21 -12 19 -10 -4z"/>
<path d="M3120 920 c0 -5 5 -10 10 -10 6 0 10 5 10 10 0 6 -4 10 -10 10 -5 0
-10 -4 -10 -10z"/>
<path d="M1930 910 c-12 -7 -10 -9 7 -7 12 0 19 5 17 9 -6 10 -6 10 -24 -2z"/>
<path d="M3344 898 c-10 -13 -12 -17 -4 -11 8 6 18 12 23 12 8 1 11 11 4 17
-2 2 -12 -6 -23 -18z"/>
<path d="M3490 910 c-9 -6 -10 -10 -3 -10 6 0 15 5 18 10 8 12 4 12 -15 0z"/>
<path d="M2171 901 c-8 -5 -9 -11 -3 -15 5 -3 12 1 16 9 6 17 6 18 -13 6z"/>
<path d="M2409 883 c-13 -16 -12 -17 4 -4 16 13 21 21 13 21 -2 0 -10 -8 -17
-17z"/>
<path d="M3029 898 c-5 -18 -6 -38 -1 -34 7 8 12 36 6 36 -2 0 -4 -1 -5 -2z"/>
<path d="M2560 886 c0 -2 7 -7 16 -10 8 -3 12 -2 9 4 -6 10 -25 14 -25 6z"/>
<path d="M1936 862 c-3 -4 4 -9 15 -9 23 -2 25 3 4 10 -8 4 -16 3 -19 -1z"/>
<path d="M1899 833 c-13 -16 -12 -17 4 -4 9 7 17 15 17 17 0 8 -8 3 -21 -13z"/>
<path d="M2556 842 c-3 -5 1 -9 9 -9 8 0 12 4 9 9 -3 4 -7 8 -9 8 -2 0 -6 -4
-9 -8z"/>
<path d="M3010 838 c0 -20 25 -24 36 -6 5 7 3 8 -6 3 -7 -4 -16 -2 -21 6 -7
11 -9 10 -9 -3z"/>
<path d="M3060 830 c0 -5 7 -10 15 -10 8 0 14 -5 13 -11 -2 -6 3 -13 10 -14 7
-2 8 -1 2 2 -5 2 -8 9 -5 13 3 5 -4 14 -15 20 -13 7 -20 7 -20 0z"/>
<path d="M3270 826 c8 -8 5 -15 -9 -26 -14 -11 -17 -20 -10 -35 l9 -20 -3 20
c-1 11 7 30 19 41 27 26 41 19 17 -8 -14 -15 -14 -19 -3 -16 10 2 14 -4 12
-17 -2 -16 -1 -17 7 -5 6 9 6 19 1 25 -6 7 -5 16 2 23 15 15 7 23 -27 26 -19
3 -23 0 -15 -8z"/>
<path d="M2510 823 c0 -6 8 -17 18 -24 16 -13 16 -13 2 6 -8 11 -16 22 -17 24
-2 2 -3 0 -3 -6z"/>
<path d="M1707 802 c-10 -10 -17 -23 -17 -28 0 -5 5 -1 11 9 6 9 14 15 18 13
4 -3 8 1 8 9 0 19 -1 19 -20 -3z"/>
<path d="M2226 791 c-17 -19 -17 -19 1 -17 10 2 25 -2 33 -8 10 -7 9 -3 -3 10
-9 11 -14 24 -10 27 3 4 4 7 1 7 -3 0 -13 -9 -22 -19z"/>
<path d="M2995 800 c-16 -7 -17 -9 -3 -9 9 -1 20 4 23 9 7 11 7 11 -20 0z"/>
<path d="M3575 792 c9 -17 -33 -64 -49 -55 -6 3 -7 2 -3 -3 5 -5 13 -10 18
-10 5 -1 14 -2 20 -3 5 0 7 -5 4 -11 -4 -6 1 -7 11 -3 14 5 13 8 -7 19 -13 7
-19 13 -14 14 6 0 16 10 23 21 11 17 11 24 1 33 -9 8 -10 8 -4 -2z"/>
<path d="M1890 786 c0 -2 8 -10 18 -17 15 -13 16 -12 3 4 -13 16 -21 21 -21
13z"/>
<path d="M3355 781 c-3 -5 -1 -12 5 -16 5 -3 10 1 10 9 0 18 -6 21 -15 7z"/>
<path d="M2995 770 c-3 -6 1 -7 9 -4 18 7 21 14 7 14 -6 0 -13 -4 -16 -10z"/>
<path d="M1961 736 c0 -12 3 -15 6 -8 2 6 8 10 12 8 4 -3 8 1 8 8 0 7 -6 13
-14 13 -7 0 -13 -10 -12 -21z"/>
<path d="M2754 749 c-8 -14 14 -19 25 -6 8 10 7 14 -5 14 -8 0 -17 -4 -20 -8z"/>
<path d="M3053 745 c0 -8 4 -12 9 -9 5 3 6 10 3 15 -9 13 -12 11 -12 -6z"/>
<path d="M3011 733 c-1 -17 16 -25 25 -12 4 7 3 9 -4 5 -5 -3 -13 0 -15 6 -4
9 -6 10 -6 1z"/>
<path d="M3286 731 c-4 -5 3 -7 14 -4 23 6 26 13 6 13 -8 0 -17 -4 -20 -9z"/>
<path d="M1574 705 c-16 -13 -16 -14 -1 -9 14 5 16 2 11 -12 -4 -11 -4 -16 0
-13 6 6 17 49 12 49 -1 0 -11 -7 -22 -15z"/>
<path d="M2416 711 c-4 -5 -2 -12 4 -16 6 -4 7 -11 4 -17 -4 -6 -2 -8 4 -5 10
7 11 32 0 42 -3 4 -9 2 -12 -4z"/>
<path d="M2537 703 c3 -7 6 -13 8 -13 2 0 5 6 8 13 3 8 -1 14 -8 14 -7 0 -11
-6 -8 -14z"/>
<path d="M2750 690 c-9 -6 -10 -10 -3 -10 6 0 15 5 18 10 8 12 4 12 -15 0z"/>
</g>
</svg>
